<svg height="512pt" viewBox="0 0 512 512" width="512pt" xmlns="http://www.w3.org/2000/svg"><path d="m255.949219 0c-24.894531 0-44.988281 20.09375-44.988281 44.992188 0 24.894531 20.09375 44.992187 44.988281 44.992187 24.898437 0 44.992187-20.097656 44.992187-44.992187 0-24.898438-20.09375-44.992188-44.992187-44.992188zm0 0" fill="#ffc739"/><path d="m255.949219 89.984375v-89.984375c24.898437 0 44.992187 20.09375 44.992187 44.992188 0 24.894531-20.09375 44.992187-44.992187 44.992187zm0 0" fill="#ff9400"/><path d="m481.90625 256.949219h-451.910156c0-107.378907 88.578125-196.960938 195.960937-196.960938h59.988281c107.378907 0 195.960938 89.582031 195.960938 196.960938zm0 0" fill="#ffe569"/><path d="m481.90625 256.949219h-225.957031v-196.960938h29.996093c107.378907 0 195.960938 89.582031 195.960938 196.960938zm0 0" fill="#ffc739"/><path d="m497.503906 301.941406-107.679687 138.574219c-12.898438 16.496094-33.09375 26.992187-53.789063 28.792969-32.394531 3-58.789062 5.101562-80.082031 6.898437-88.484375 7.199219-89.785156 7.300781-110.480469 27.695313l-8.097656 8.097656-128.976562-73.285156s19.796874-28.796875 24.59375-36.292969c36.292968-53.992187 67.488281-100.480469 140.972656-100.480469l36.992187-29.992187 59.988281 29.992187c32.992188 0 59.988282 26.992188 59.988282 59.988282h-150.96875v29.996093h173.464844l34.195312-43.792969c22.796875-29.394531 58.890625-46.191406 95.78125-46.191406zm0 0" fill="#ffcebf"/><path d="m330.9375 361.929688h-74.988281v-67.488282l15 7.5c32.992187 0 59.988281 26.992188 59.988281 59.988282zm0 0" fill="#ffb99c"/><path d="m497.503906 301.941406-107.679687 138.574219c-12.898438 16.496094-33.09375 26.992187-53.789063 28.792969-32.394531 3-58.789062 5.101562-80.082031 6.898437v-84.28125h97.480469l34.191406-43.792969c22.796875-29.394531 58.890625-46.191406 95.78125-46.191406zm0 0" fill="#ffb99c"/><path d="m511.902344 241.953125v14.996094c0 24.894531-20.097656 44.992187-44.992188 44.992187h-421.917968c-24.898438 0-44.992188-20.097656-44.992188-44.992187v-14.996094zm0 0" fill="#ffc739"/><path d="m511.902344 241.953125v14.996094c0 24.894531-20.097656 44.992187-44.992188 44.992187h-210.960937v-59.988281zm0 0" fill="#ff9400"/></svg>